<svg width="160" height="80" viewBox="0 0 160 80" fill="none" xmlns="http://www.w3.org/2000/svg">
<g clip-path="url(#clip0_166_1001)">
<path opacity="0.1" d="M160 0H0V80H160V0Z" fill="white"/>
<path d="M155.509 68.9866C158.769 67.3058 157.893 56.635 157.893 56.635C157.893 56.635 155.02 55.955 155.02 53.1478V45.5648C155.02 45.5648 155 45 154.5 44C154 42 151.537 42.835 151.537 42.835C151.537 42.835 143.6 45.1859 138.834 41.9999C134.071 38.8138 116.227 33.0508 116.227 33.0508V31.1965C113.127 30.5567 110.179 31.6843 110.179 31.6843C97.8543 30.5457 81.2118 31.6843 74.3313 32.2165C67.4494 32.7474 50.9683 42.7568 48.6243 44.1979C46.2793 45.6399 43 45 33.5 46.5C24 48 17.5 49 17.5 49C3.21537 52.2628 3.7544 55.2254 3.77926 57.7502C3.78489 58.321 3.78978 58.8183 3.62827 59.2175C3.47636 59.3116 3.28252 59.4058 3 59.5C1.5 60 1 70 1 72.5C1 74.5 1.66667 75 2 75H136C142.167 73.5 154.7 70.2 155.5 69C155.503 68.9956 155.506 68.9911 155.509 68.9866Z" fill="#FDC501" stroke="#3E4958" stroke-width="2"/>
<path d="M45 45.3331C45.7829 45.479 46.5245 45.6545 47.3339 45.8461C48.2951 46.0735 49.352 46.3236 50.6872 46.5737C58.3736 48.0135 126.013 45.6139 124.988 42.2544C123.964 38.8949 110.641 34.5756 106.541 34.0957C103.752 33.7692 82.731 34.3451 67.9952 34.8198C60.2153 37.8353 50.539 43.3425 48.7649 44.364C47.7889 44.9262 46.6549 45.1587 45 45.3331Z" fill="#3E4958"/>
<path d="M127.003 80C132.171 80 136.596 76.9588 138.689 72.5904C139.506 70.8941 140 69.0091 140 66.9997C140 59.8199 134.18 54 127 54C119.82 54 114 59.8171 114 66.9997C114 68.8881 114.422 70.6732 115.147 72.2912C117.182 76.8272 121.715 80 127.003 80Z" fill="#3E4958"/>
<path d="M127.002 76C130.621 76 133.722 73.8488 135.15 70.7669C135.681 69.6187 136 68.3513 136 66.9998C136 62.0292 131.97 58 127 58C122.03 58 118 62.0272 118 66.9998C118 68.4628 118.382 69.8258 119.003 71.0451C120.491 73.9745 123.494 76 127.002 76Z" fill="white"/>
<path d="M29.0028 80C34.1709 80 38.5964 76.9588 40.6895 72.5904C41.506 70.8941 42 69.0091 42 66.9997C42 59.8199 36.1797 54 29 54C21.8198 54 16 59.8171 16 66.9997C16 68.8881 16.4224 70.6732 17.1467 72.2912C19.1821 76.8272 23.7147 80 29.0028 80Z" fill="#3E4958"/>
<path d="M29.0017 76C32.6213 76 35.7216 73.8488 37.1504 70.7669C37.6814 69.6187 38 68.3513 38 66.9998C38 62.0292 33.9705 58 29.0002 58C24.0295 58 20 62.0272 20 66.9998C20 68.4628 20.382 69.8258 21.003 71.0451C22.4909 73.9745 25.4936 76 29.0017 76Z" fill="white"/>
</g>
<defs>
<clipPath id="clip0_166_1001">
<rect width="160" height="80" fill="white"/>
</clipPath>
</defs>
</svg>
