<svg width="160" height="80" viewBox="0 0 160 80" fill="none" xmlns="http://www.w3.org/2000/svg">
<g clip-path="url(#clip0_166_1011)">
<path opacity="0.1" d="M160 0H0V80H160V0Z" fill="white"/>
<path d="M11.0377 55.5576C11.2988 46.2712 14.0943 43.703 18.1825 41.4096C19.1524 40.8655 20.195 40.2807 21.2938 39.5422C36.4935 29.3276 71.8703 17.8388 71.8703 17.8388C71.8703 17.8388 139.802 14.5137 146.026 21.1043C149.312 26.0086 152.533 43.5044 152.855 54.3917C155.149 56.8621 155.164 58.6465 154.865 59.25L154.408 73H10.8821L9 72.0517V56.8793C9.20925 56.6685 9.85122 56.1904 11.0377 55.5576Z" fill="#FDC501" stroke="#3E4958" stroke-width="2"/>
<path d="M28.3672 35.3926C40.2421 29.1405 56.7804 23.049 65.6543 19.9505C93.5206 19.8749 134.404 20.1028 136.5 21.5C139.5 23.5 139.5 35 139 36C138.5 37 36.4996 39 32.9996 37.5C31.484 36.8505 29.8025 36.074 28.3672 35.3926Z" fill="#3E4958"/>
<path d="M32.0028 80C37.1709 80 41.5964 76.9588 43.6895 72.5904C44.506 70.8941 45 69.0091 45 66.9997C45 59.8199 39.1797 54 32 54C24.8198 54 19 59.8171 19 66.9997C19 68.8881 19.4224 70.6732 20.1467 72.2912C22.1821 76.8272 26.7147 80 32.0028 80Z" fill="#3E4958"/>
<path d="M32.0017 76C35.6213 76 38.7216 73.8488 40.1504 70.7669C40.6814 69.6187 41 68.3513 41 66.9998C41 62.0292 36.9705 58 32.0002 58C27.0295 58 23 62.0272 23 66.9998C23 68.4628 23.382 69.8258 24.003 71.0451C25.4909 73.9745 28.4936 76 32.0017 76Z" fill="white"/>
<path d="M133.003 80C138.171 80 142.596 76.9588 144.689 72.5904C145.506 70.8941 146 69.0091 146 66.9997C146 59.8199 140.18 54 133 54C125.82 54 120 59.8171 120 66.9997C120 68.8881 120.422 70.6732 121.147 72.2912C123.182 76.8272 127.715 80 133.003 80Z" fill="#3E4958"/>
<path d="M133.002 76C136.621 76 139.722 73.8488 141.15 70.7669C141.681 69.6187 142 68.3513 142 66.9998C142 62.0292 137.97 58 133 58C128.03 58 124 62.0272 124 66.9998C124 68.4628 124.382 69.8258 125.003 71.0451C126.491 73.9745 129.494 76 133.002 76Z" fill="white"/>
</g>
<defs>
<clipPath id="clip0_166_1011">
<rect width="160" height="80" fill="white"/>
</clipPath>
</defs>
</svg>
