<svg width="160" height="80" viewBox="0 0 160 80" fill="none" xmlns="http://www.w3.org/2000/svg">
<g clip-path="url(#clip0_166_1042)">
<path opacity="0.1" d="M160 0H0V80H160V0Z" fill="white"/>
<path d="M152.868 52.0314L154.376 53.5542C154.777 53.9568 155.001 54.506 155 55.0769V59.3847C155 59.9554 154.776 60.5046 154.375 60.9075L152.867 62.4302V65.8462C152.867 67.0351 151.913 68 150.733 68H8.26653C7.08677 68 6.13327 67.0351 6.13327 65.8462V62.4302L4.625 60.9075C4.224 60.5046 4 59.9554 4 59.3847V55.0769C4 54.5063 4.224 53.957 4.625 53.5542L6.18252 51.9797C6.32552 49.9165 6.65402 48.1116 7.09127 46.4617L8.70204 42.1539C10.4066 38.7336 12.7511 36.2847 15.2193 34.2171L38.9865 12.9198C39.3855 12.3425 40.0382 12 40.7337 12H150.734C151.914 12 152.868 12.9649 152.868 14.1538V52.0314Z" fill="#FDC501" stroke="#3E4958" stroke-width="2"/>
<path d="M13.2441 36C13.8866 35.3696 14.5485 34.7792 15.2196 34.2171L36.6652 15H145L143 36H13.2441Z" fill="#3E4958"/>
<path d="M130.003 80C135.966 80 141.073 76.4909 143.488 71.4504C144.43 69.4932 145 67.3182 145 64.9997C145 56.7153 138.284 50 130 50C121.715 50 115 56.7121 115 64.9997C115 67.1785 115.487 69.2383 116.323 71.1052C118.672 76.3391 123.902 80 130.003 80Z" fill="#3E4958"/>
<path d="M130.002 75C134.024 75 137.468 72.6098 139.056 69.1854C139.646 67.9096 140 66.5015 140 64.9998C140 59.4768 135.523 55 130 55C124.477 55 120 59.4747 120 64.9998C120 66.6253 120.424 68.1398 121.114 69.4946C122.768 72.7494 126.104 75 130.002 75Z" fill="white"/>
<path d="M35.0032 80C40.9664 80 46.0727 76.4909 48.4879 71.4504C49.43 69.4932 50 67.3182 50 64.9997C50 56.7153 43.2842 50 35 50C26.7151 50 20 56.7121 20 64.9997C20 67.1785 20.4874 69.2383 21.3232 71.1052C23.6717 76.3391 28.9016 80 35.0032 80Z" fill="#3E4958"/>
<path d="M35.0019 75C39.0236 75 42.4685 72.6098 44.056 69.1854C44.646 67.9096 45 66.5015 45 64.9998C45 59.4768 40.5227 55 35.0002 55C29.4773 55 25 59.4747 25 64.9998C25 66.6253 25.4244 68.1398 26.1144 69.4946C27.7677 72.7494 31.1041 75 35.0019 75Z" fill="white"/>
</g>
<defs>
<clipPath id="clip0_166_1042">
<rect width="160" height="80" fill="white"/>
</clipPath>
</defs>
</svg>
