<svg width="80" height="81" viewBox="0 0 80 81" fill="none" xmlns="http://www.w3.org/2000/svg">
<mask id="mask0_21_274" style="mask-type:luminance" maskUnits="userSpaceOnUse" x="0" y="0" width="80" height="81">
<path d="M80 0.5H0V80.5H80V0.5Z" fill="white"/>
</mask>
<g mask="url(#mask0_21_274)">
<path d="M48.8103 35.8641L59.2264 43.2788C59.6893 43.6084 60.3102 43.6084 60.7731 43.2788L71.1891 35.8641C73.359 34.3273 74.6538 31.8378 74.6663 29.1788V13.4028C74.6671 12.8719 74.353 12.3911 73.8664 12.1788L60.5331 6.41881C60.1961 6.27348 59.8141 6.27348 59.4771 6.41881L46.1438 12.1788C45.6572 12.3911 45.343 12.8719 45.3438 13.4028V29.1788C45.3541 31.8358 46.6447 34.3248 48.8103 35.8641ZM47.9998 14.2788L59.9998 9.09615L71.9998 14.2788V29.1788C71.99 30.9784 71.1115 32.6625 69.6411 33.7001L59.9998 40.5561L50.3584 33.6921C48.8898 32.6566 48.0114 30.9758 47.9998 29.1788V14.2788Z" fill="#3E4958"/>
<path d="M56.5347 32.2335C57.1107 32.6658 57.926 32.5625 58.376 32.0002L69.0427 18.6668C69.5029 18.0917 69.4098 17.2524 68.8347 16.7922C68.2596 16.3319 67.4202 16.4251 66.96 17.0002L57.0933 29.3255L52.8013 26.1002C52.4202 25.8144 51.9156 25.7536 51.4776 25.9407C51.0395 26.1278 50.7345 26.5344 50.6776 27.0073C50.6206 27.4803 50.8202 27.9477 51.2013 28.2335L56.5347 32.2335Z" fill="#FDC501"/>
<path d="M2.66667 71.1668H4V76.5001C4 78.7093 5.79086 80.5001 8 80.5001H16C18.2091 80.5001 20 78.7093 20 76.5001V71.1668H52V76.5001C52 78.7093 53.7909 80.5001 56 80.5001H64C66.2091 80.5001 68 78.7093 68 76.5001V71.1668H69.3333C70.8061 71.1668 72 69.9729 72 68.5001V48.5001C72.005 46.5678 71.1623 44.7304 69.6947 43.4735L74.2813 40.2095C77.856 37.6709 79.9856 33.5631 80 29.1788V9.89749C80.0008 9.3666 79.6866 8.88584 79.2 8.67349L60.5333 0.609488C60.1963 0.464155 59.8143 0.464155 59.4773 0.609488L40.8 8.67349C40.3134 8.88584 39.9992 9.3666 40 9.89749V15.1668H19.8267C16.9999 15.1678 14.481 16.9514 13.5413 19.6175L5.688 41.9321C2.42774 42.4119 0.00910289 45.2048 0 48.5001V68.5001C0 69.9729 1.19391 71.1668 2.66667 71.1668ZM17.3333 76.5001C17.3333 77.2365 16.7364 77.8335 16 77.8335H8C7.26362 77.8335 6.66667 77.2365 6.66667 76.5001V71.1668H17.3333V76.5001ZM12 68.5001H9.33333V65.8335H12V68.5001ZM65.3333 76.5001C65.3333 77.2365 64.7364 77.8335 64 77.8335H56C55.2636 77.8335 54.6667 77.2365 54.6667 76.5001V71.1668H65.3333V76.5001ZM62.6667 68.5001H60V65.8335H62.6667V68.5001ZM42.6667 10.7735L60 3.28549L77.3333 10.7735V29.1735C77.3201 32.6955 75.6075 35.9946 72.7347 38.0321L60 47.1028L47.2653 38.0361C44.3928 35.9989 42.6803 32.7004 42.6667 29.1788V10.7735ZM62.6667 49.8335C63.403 49.8335 64 50.4304 64 51.1668V53.8335C64 54.5698 63.403 55.1668 62.6667 55.1668H54.6667C53.9303 55.1668 53.3333 54.5698 53.3333 53.8335C53.3333 51.6243 55.1242 49.8335 57.3333 49.8335H62.6667ZM40 23.1668V25.8335H30.6667V23.1668H40ZM40 20.5001H37.3333V17.8335H40V20.5001ZM16.0573 20.5001C16.6221 18.9026 18.1322 17.8343 19.8267 17.8335H34.6667V20.5001H30.6667C29.1939 20.5001 28 21.694 28 23.1668V25.8335C28 27.3062 29.1939 28.5001 30.6667 28.5001H40V29.1788C40.0144 33.5631 42.144 37.6709 45.7187 40.2095L48 41.8335H8.54933L16.0573 20.5001ZM2.66667 48.5001C2.66667 46.291 4.45753 44.5001 6.66667 44.5001H51.7467L55.776 47.3695C52.7859 48.0878 50.6751 50.7583 50.6667 53.8335C50.6667 56.0426 52.4575 57.8335 54.6667 57.8335H62.6667C64.8758 57.8335 66.6667 56.0426 66.6667 53.8335V51.1668C66.6623 49.5198 65.6489 48.0438 64.1133 47.4481L67.4147 45.0975C68.6105 45.8131 69.3398 47.1066 69.3333 48.5001L69.3334 68.5001H65.3333V65.8335C65.3333 64.3607 64.1394 63.1668 62.6667 63.1668H60C58.5272 63.1668 57.3333 64.3607 57.3333 65.8335V68.5001H14.6667V65.8335C14.6667 64.3607 13.4728 63.1668 12 63.1668H9.33333C7.86057 63.1668 6.66667 64.3607 6.66667 65.8335V68.5001H2.66667V48.5001Z" fill="#3E4958"/>
<path d="M9.33398 57.8335H17.334C19.5431 57.8335 21.334 56.0427 21.334 53.8335C21.3296 50.1534 18.3474 47.1712 14.6673 47.1667H9.33398C7.12485 47.1667 5.33398 48.9576 5.33398 51.1667V53.8335C5.33398 56.0427 7.12485 57.8335 9.33398 57.8335ZM8.00065 51.1667C8.00065 50.4304 8.5976 49.8335 9.33398 49.8335H14.6673C16.8765 49.8335 18.6673 51.6244 18.6673 53.8335C18.6673 54.5699 18.0704 55.1669 17.334 55.1669H9.33398C8.5976 55.1669 8.00065 54.5699 8.00065 53.8335V51.1667Z" fill="#3E4958"/>
<path d="M26.6667 65.8334H45.3333C46.8061 65.8334 48 64.6395 48 63.1667V57.8335C48 56.3607 46.8061 55.1667 45.3333 55.1667H26.6667C25.1939 55.1667 24 56.3607 24 57.8335V63.1667C24 64.6395 25.1939 65.8334 26.6667 65.8334ZM26.6667 57.8335H45.3333V63.1667H26.6667V57.8335Z" fill="#3E4958"/>
</g>
</svg>
