<svg width="80" height="81" viewBox="0 0 80 81" fill="none" xmlns="http://www.w3.org/2000/svg">
<g clip-path="url(#clip0_21_275)">
<path d="M68.2844 12.2156C60.7292 4.66063 50.6844 0.5 40 0.5C29.3156 0.5 19.2708 4.66063 11.7156 12.2156C4.16047 19.7706 0 29.8156 0 40.5C0 51.1844 4.16063 61.2292 11.7156 68.7844C19.2706 76.3395 29.3156 80.5 40 80.5C50.6844 80.5 60.7292 76.3394 68.2844 68.7844C75.8395 61.2294 80 51.1844 80 40.5C80 29.8156 75.8394 19.7708 68.2844 12.2156ZM66.5166 67.0166C59.4338 74.0994 50.0166 78 40 78C29.9834 78 20.5662 74.0994 13.4834 67.0166C6.40062 59.9338 2.5 50.5166 2.5 40.5C2.5 30.4834 6.40062 21.0662 13.4834 13.9834C20.5662 6.90062 29.9834 3 40 3C50.0166 3 59.4338 6.90062 66.5166 13.9834C73.5994 21.0662 77.5 30.4834 77.5 40.5C77.5 50.5166 73.5994 59.9338 66.5166 67.0166Z" fill="#3E4958"/>
<path d="M7.5 40.5C7.5 22.5795 22.0795 8 40 8C46.4637 8 52.7072 9.89234 58.0555 13.4725C58.6291 13.8566 59.4055 13.7028 59.7895 13.1291C60.1736 12.5555 60.0198 11.7791 59.4461 11.395C53.685 7.53844 46.9606 5.5 40 5.5C30.6511 5.5 21.8619 9.14063 15.2513 15.7513C8.64063 22.3619 5 31.1511 5 40.5C5 49.125 8.16469 57.4113 13.9112 63.8325C14.1581 64.1084 14.5 64.2489 14.8431 64.2489C15.1398 64.2489 15.4378 64.1439 15.6763 63.9303C16.1906 63.4698 16.2345 62.6797 15.7741 62.1653C10.4386 56.2031 7.5 48.5089 7.5 40.5Z" fill="#3E4958"/>
<path d="M69.1048 21.0541C68.7208 20.4804 67.9443 20.3266 67.3708 20.7107C66.7972 21.0947 66.6433 21.8711 67.0273 22.4447C70.6073 27.7929 72.4997 34.0363 72.4997 40.4999C72.4997 58.4204 57.9201 72.9999 39.9997 72.9999C32.5648 72.9999 25.2972 70.425 19.5358 65.7497C18.9997 65.3147 18.2125 65.3966 17.7775 65.9327C17.3425 66.4688 17.4243 67.256 17.9604 67.691C24.1659 72.7266 31.9929 75.4999 39.9997 75.4999C49.3486 75.4999 58.1378 71.8593 64.7484 65.2486C71.359 58.638 74.9997 49.8488 74.9997 40.4999C74.9997 33.5394 72.9612 26.815 69.1048 21.0541Z" fill="#3E4958"/>
<path d="M61.6664 16.2743C62.5069 17.0263 63.3172 17.8311 64.0748 18.6661C64.3216 18.938 64.6606 19.0761 65.0009 19.0761C65.3005 19.0761 65.6012 18.969 65.8406 18.7518C66.3517 18.2879 66.3902 17.4972 65.9262 16.986C65.1106 16.0872 64.2383 15.221 63.3336 14.4113C62.8192 13.951 62.0289 13.9947 61.5686 14.5091C61.1083 15.0235 61.1519 15.8138 61.6664 16.2743Z" fill="#3E4958"/>
<path d="M40 16.75C40.6903 16.75 41.25 16.1903 41.25 15.5V11.75C41.25 11.0597 40.6903 10.5 40 10.5C39.3097 10.5 38.75 11.0597 38.75 11.75V15.5C38.75 16.1903 39.3097 16.75 40 16.75Z" fill="#3E4958"/>
<path d="M38.75 65.5V69.25C38.75 69.9403 39.3097 70.5 40 70.5C40.6903 70.5 41.25 69.9403 41.25 69.25V65.5C41.25 64.8097 40.6903 64.25 40 64.25C39.3097 64.25 38.75 64.8097 38.75 65.5Z" fill="#3E4958"/>
<path d="M16.25 40.5C16.25 39.8097 15.6903 39.25 15 39.25H11.25C10.5597 39.25 10 39.8097 10 40.5C10 41.1903 10.5597 41.75 11.25 41.75H15C15.6903 41.75 16.25 41.1903 16.25 40.5Z" fill="#3E4958"/>
<path d="M63.75 40.5C63.75 41.1903 64.3097 41.75 65 41.75H68.75C69.4403 41.75 70 41.1903 70 40.5C70 39.8097 69.4403 39.25 68.75 39.25H65C64.3097 39.25 63.75 39.8097 63.75 40.5Z" fill="#3E4958"/>
<path d="M28.5827 18.2243L26.7077 14.9767C26.3625 14.3787 25.598 14.1742 25.0002 14.5192C24.4024 14.8643 24.1975 15.6289 24.5427 16.2267L26.4177 19.4743C26.6492 19.8753 27.0694 20.0995 27.5014 20.0995C27.7134 20.0995 27.9284 20.0454 28.1253 19.9318C28.723 19.5867 28.9278 18.8222 28.5827 18.2243Z" fill="#3E4958"/>
<path d="M53.5827 61.5257C53.2375 60.9278 52.4728 60.7233 51.8752 61.0682C51.2774 61.4133 51.0725 62.1778 51.4177 62.7757L53.2927 66.0233C53.5242 66.4242 53.9444 66.6485 54.3764 66.6485C54.5885 66.6485 54.8035 66.5944 55.0003 66.4808C55.5981 66.1357 55.803 65.3711 55.4578 64.7733L53.5827 61.5257Z" fill="#3E4958"/>
<path d="M15.1028 56.1252C15.3149 56.1252 15.5299 56.0711 15.7267 55.9575L18.9744 54.0825C19.5722 53.7374 19.777 52.9728 19.4319 52.375C19.0867 51.7772 18.322 51.5727 17.7244 51.9175L14.4767 53.7925C13.8789 54.1377 13.6741 54.9022 14.0192 55.5C14.2506 55.901 14.6708 56.1252 15.1028 56.1252Z" fill="#3E4958"/>
<path d="M61.6517 29.2502C61.8637 29.2502 62.0787 29.1961 62.2756 29.0825L65.5232 27.2075C66.121 26.8624 66.3259 26.0978 65.9807 25.5C65.6356 24.9022 64.871 24.6977 64.2732 25.0425L61.0256 26.9175C60.4277 27.2627 60.2229 28.0272 60.5681 28.625C60.7996 29.026 61.2198 29.2502 61.6517 29.2502Z" fill="#3E4958"/>
<path d="M55.0002 14.5191C54.4024 14.1738 53.6378 14.3786 53.2927 14.9766L51.4177 18.2242C51.0725 18.8221 51.2774 19.5866 51.8752 19.9317C52.072 20.0455 52.2869 20.0994 52.4991 20.0994C52.9311 20.0994 53.3513 19.8752 53.5828 19.4742L55.4578 16.2266C55.8028 15.6288 55.598 14.8642 55.0002 14.5191Z" fill="#3E4958"/>
<path d="M28.1252 61.0681C27.5273 60.7229 26.7628 60.9277 26.4177 61.5256L24.5427 64.7732C24.1975 65.371 24.4024 66.1355 25.0002 66.4807C25.197 66.5945 25.4119 66.6484 25.6241 66.6484C26.0561 66.6484 26.4763 66.4241 26.7078 66.0232L28.5828 62.7756C28.9278 62.1777 28.723 61.4132 28.1252 61.0681Z" fill="#3E4958"/>
<path d="M61.0255 54.0825L64.2732 55.9575C64.47 56.0712 64.6849 56.1251 64.8971 56.1251C65.3291 56.1251 65.7493 55.9009 65.9808 55.5C66.326 54.9022 66.1211 54.1376 65.5233 53.7925L62.2757 51.9175C61.6779 51.5722 60.9133 51.7772 60.5682 52.375C60.2229 52.9728 60.4277 53.7373 61.0255 54.0825Z" fill="#3E4958"/>
<path d="M18.9744 26.9175L15.7267 25.0425C15.1289 24.6972 14.3644 24.9022 14.0192 25.5C13.6741 26.0978 13.8789 26.8623 14.4767 27.2075L17.7244 29.0825C17.9213 29.1962 18.1361 29.2501 18.3483 29.2501C18.7803 29.2501 19.2005 29.0259 19.432 28.625C19.777 28.0272 19.5722 27.2626 18.9744 26.9175Z" fill="#3E4958"/>
<path d="M48.7019 56.8205C48.9139 56.8205 49.1289 56.7664 49.3258 56.6528C49.9236 56.3077 50.1285 55.5431 49.7833 54.9453L42.8489 42.9345C43.41 42.2787 43.75 41.4286 43.75 40.5C43.75 38.8705 42.7048 37.4809 41.25 36.965V20.5C41.25 19.8097 40.6903 19.25 40 19.25C39.3097 19.25 38.75 19.8097 38.75 20.5V36.965C37.2952 37.4809 36.25 38.8705 36.25 40.5C36.25 42.5678 37.9322 44.25 40 44.25C40.2339 44.25 40.4627 44.2273 40.6848 44.1862L47.6183 56.1953C47.8499 56.5962 48.27 56.8205 48.7019 56.8205ZM38.75 40.5C38.75 39.8108 39.3108 39.25 40 39.25C40.6892 39.25 41.25 39.8108 41.25 40.5C41.25 41.1892 40.6892 41.75 40 41.75C39.3108 41.75 38.75 41.1892 38.75 40.5Z" fill="#FDC501"/>
</g>
<defs>
<clipPath id="clip0_21_275">
<rect width="80" height="80" fill="white" transform="translate(0 0.5)"/>
</clipPath>
</defs>
</svg>
