<svg width="80" height="81" viewBox="0 0 80 81" fill="none" xmlns="http://www.w3.org/2000/svg">
<path d="M40.0006 15.0776C37.8098 15.0776 35.7012 15.7367 33.9029 16.9836C33.3713 17.3522 33.237 18.0851 33.6027 18.6208C33.9687 19.1564 34.6962 19.2917 35.2277 18.9233C36.6346 17.9478 38.2849 17.4322 40.0006 17.4322C44.6496 17.4322 48.4318 21.2428 48.4318 25.9267C48.4318 30.6106 44.6496 34.4214 40.0006 34.4214C35.3515 34.4214 31.5693 30.6106 31.5693 25.9267C31.5693 24.545 31.8877 23.2278 32.5157 22.0119C32.8135 21.435 32.591 20.7242 32.0185 20.4242C31.4459 20.1244 30.7407 20.3483 30.4427 20.9251C29.651 22.4583 29.2324 24.1878 29.2324 25.9267C29.2326 31.909 34.0631 36.7759 40.0006 36.7759C45.9381 36.7759 50.7685 31.909 50.7685 25.9267C50.7685 19.9445 45.9381 15.0776 40.0006 15.0776Z" fill="#FDC501"/>
<path d="M79.9102 78.8705L68.3783 50.9541C68.1971 50.5152 67.7716 50.2292 67.2998 50.2292H55.808C58.0432 47.1827 59.9037 44.1481 61.3566 41.1686C63.9316 35.8883 65.2371 30.7603 65.2371 25.9269C65.2369 11.9064 53.9157 0.5 39.9999 0.5C26.0841 0.5 14.7629 11.9064 14.7629 25.9267C14.7629 30.7602 16.0684 35.8883 18.6434 41.1684C20.0962 44.148 21.9566 47.1827 24.1919 50.2291H12.7002C12.2284 50.2291 11.8027 50.5152 11.6216 50.9539L3.76351 69.9767C3.51554 70.577 3.79742 71.2661 4.3932 71.5158C4.54007 71.5773 4.69195 71.6066 4.84164 71.6066C5.29945 71.6066 5.73398 71.3338 5.9207 70.8814L7.04195 68.167H14.996L10.8741 78.1455H2.92023L4.11507 75.2528C4.36304 74.6525 4.08117 73.9634 3.48539 73.7137C2.88929 73.4636 2.20554 73.748 1.95773 74.3481L0.0897627 78.8705C-0.0603936 79.2337 -0.0203936 79.6488 0.196481 79.9759C0.413044 80.3033 0.777731 80.5 1.16836 80.5H78.8315C79.2219 80.5 79.5868 80.3033 79.8035 79.9759C80.0202 79.6488 80.0604 79.2337 79.9102 78.8705ZM17.0998 25.9267C17.0998 13.2045 27.3727 2.85437 39.9999 2.85437C52.6271 2.85437 62.9001 13.2047 62.9001 25.9267C62.9001 31.2616 61.0602 39.7866 52.5493 50.6503C52.5407 50.6605 52.533 50.6712 52.5249 50.6817C52.0902 51.2359 51.6387 51.7961 51.1685 52.3625C46.4916 57.9972 41.7588 62.1117 39.9998 63.5736C38.2459 62.1167 33.5354 58.0228 28.8618 52.3989C28.3799 51.8191 27.9177 51.2458 27.4729 50.6786C27.4657 50.6695 27.459 50.6602 27.4515 50.6512C18.9409 39.7883 17.0998 31.2636 17.0998 25.9267ZM13.4794 52.5836H21.4337L18.5324 59.6067H10.5784L13.4794 52.5836ZM20.3119 78.1456L27.6152 60.4662L48.3987 78.1456H20.3119ZM52.021 78.1456L27.9035 57.63C27.6188 57.3877 27.2363 57.2969 26.8748 57.3853C26.5129 57.4736 26.2141 57.7306 26.0712 58.077L17.781 78.1455H13.4054L17.8266 67.442C17.9768 67.0788 17.9368 66.6639 17.7199 66.3366C17.5034 66.0092 17.1385 65.8125 16.7479 65.8125H8.01492L9.60586 61.9609H19.3118C19.7837 61.9609 20.2093 61.6748 20.3904 61.2361L23.9648 52.5834H25.9926C26.3446 53.0256 26.7024 53.468 27.0698 53.9102C33.0987 61.1648 39.0351 65.8225 39.2849 66.0173C39.4955 66.1816 39.7477 66.2634 39.9999 66.2634C40.2521 66.2634 40.5044 66.1814 40.7149 66.0173C40.8523 65.9103 42.7082 64.4534 45.3513 61.9611H58.5827C59.228 61.9611 59.7512 61.4341 59.7512 60.7839C59.7512 60.1337 59.228 59.6067 58.5827 59.6067H47.7594C49.3794 57.9656 51.1501 56.0522 52.9302 53.9103C53.2976 53.4681 53.6555 53.0259 54.0074 52.5836H66.5204L69.4215 59.6067H63.2563C62.611 59.6067 62.0879 60.1337 62.0879 60.7839C62.0879 61.4341 62.6109 61.9611 63.2563 61.9611H70.394L71.9849 65.8127H47.9115C47.4238 65.8127 46.9876 66.1177 46.8168 66.578C46.6463 67.0383 46.7773 67.5569 47.1455 67.8789L58.8851 78.1456H52.021ZM62.4501 78.1456L51.0401 68.1672H72.9577L77.0798 78.1456H62.4501Z" fill="#3E4958"/>
</svg>
