<svg width="80" height="80" viewBox="0 0 80 80" fill="none" xmlns="http://www.w3.org/2000/svg">
<g clip-path="url(#clip0_166_1070)">
<mask id="mask0_166_1070" style="mask-type:luminance" maskUnits="userSpaceOnUse" x="0" y="0" width="80" height="80">
<path d="M80 0H0V80H80V0Z" fill="white"/>
</mask>
<g mask="url(#mask0_166_1070)">
<path d="M40.0006 14.5776C37.8098 14.5776 35.7012 15.2367 33.9029 16.4836C33.3713 16.8522 33.237 17.5851 33.6027 18.1208C33.9687 18.6564 34.6962 18.7917 35.2277 18.4233C36.6346 17.4478 38.2849 16.9322 40.0006 16.9322C44.6496 16.9322 48.4318 20.7428 48.4318 25.4267C48.4318 30.1106 44.6496 33.9214 40.0006 33.9214C35.3515 33.9214 31.5693 30.1106 31.5693 25.4267C31.5693 24.045 31.8877 22.7278 32.5157 21.5119C32.8135 20.935 32.591 20.2242 32.0185 19.9242C31.4459 19.6244 30.7407 19.8483 30.4427 20.4251C29.651 21.9583 29.2324 23.6878 29.2324 25.4267C29.2326 31.409 34.0631 36.2759 40.0006 36.2759C45.9381 36.2759 50.7685 31.409 50.7685 25.4267C50.7685 19.4445 45.9381 14.5776 40.0006 14.5776Z" fill="#FDC501"/>
<path d="M79.9102 78.3705L68.3783 50.4541C68.1971 50.0152 67.7716 49.7292 67.2998 49.7292H55.808C58.0432 46.6827 59.9037 43.6481 61.3566 40.6686C63.9316 35.3883 65.2371 30.2603 65.2371 25.4269C65.2369 11.4064 53.9157 0 39.9999 0C26.0841 0 14.7629 11.4064 14.7629 25.4267C14.7629 30.2602 16.0684 35.3883 18.6434 40.6684C20.0962 43.648 21.9566 46.6827 24.1919 49.7291H12.7002C12.2284 49.7291 11.8027 50.0152 11.6216 50.4539L3.76351 69.4767C3.51554 70.077 3.79742 70.7661 4.3932 71.0158C4.54007 71.0773 4.69195 71.1066 4.84164 71.1066C5.29945 71.1066 5.73398 70.8338 5.9207 70.3814L7.04195 67.667H14.996L10.8741 77.6455H2.92023L4.11507 74.7528C4.36304 74.1525 4.08117 73.4634 3.48539 73.2137C2.88929 72.9636 2.20554 73.248 1.95773 73.8481L0.0897627 78.3705C-0.0603936 78.7337 -0.0203936 79.1488 0.196481 79.4759C0.413044 79.8033 0.777731 80 1.16836 80H78.8315C79.2219 80 79.5868 79.8033 79.8035 79.4759C80.0202 79.1488 80.0604 78.7337 79.9102 78.3705ZM17.0998 25.4267C17.0998 12.7045 27.3727 2.35437 39.9999 2.35437C52.6271 2.35437 62.9001 12.7047 62.9001 25.4267C62.9001 30.7616 61.0602 39.2866 52.5493 50.1503C52.5407 50.1605 52.533 50.1712 52.5249 50.1817C52.0902 50.7359 51.6387 51.2961 51.1685 51.8625C46.4916 57.4972 41.7588 61.6117 39.9998 63.0736C38.2459 61.6167 33.5354 57.5228 28.8618 51.8989C28.3799 51.3191 27.9177 50.7458 27.4729 50.1786C27.4657 50.1695 27.459 50.1602 27.4515 50.1512C18.9409 39.2883 17.0998 30.7636 17.0998 25.4267ZM13.4794 52.0836H21.4337L18.5324 59.1067H10.5784L13.4794 52.0836ZM20.3119 77.6456L27.6152 59.9662L48.3987 77.6456H20.3119ZM52.021 77.6456L27.9035 57.13C27.6188 56.8877 27.2363 56.7969 26.8748 56.8853C26.5129 56.9736 26.2141 57.2306 26.0712 57.577L17.781 77.6455H13.4054L17.8266 66.942C17.9768 66.5788 17.9368 66.1639 17.7199 65.8366C17.5034 65.5092 17.1385 65.3125 16.7479 65.3125H8.01492L9.60586 61.4609H19.3118C19.7837 61.4609 20.2093 61.1748 20.3904 60.7361L23.9648 52.0834H25.9926C26.3446 52.5256 26.7024 52.968 27.0698 53.4102C33.0987 60.6648 39.0351 65.3225 39.2849 65.5173C39.4955 65.6816 39.7477 65.7634 39.9999 65.7634C40.2521 65.7634 40.5044 65.6814 40.7149 65.5173C40.8523 65.4103 42.7082 63.9534 45.3513 61.4611H58.5827C59.228 61.4611 59.7512 60.9341 59.7512 60.2839C59.7512 59.6337 59.228 59.1067 58.5827 59.1067H47.7594C49.3794 57.4656 51.1501 55.5522 52.9302 53.4103C53.2976 52.9681 53.6555 52.5259 54.0074 52.0836H66.5204L69.4215 59.1067H63.2563C62.611 59.1067 62.0879 59.6337 62.0879 60.2839C62.0879 60.9341 62.6109 61.4611 63.2563 61.4611H70.394L71.9849 65.3127H47.9115C47.4238 65.3127 46.9876 65.6177 46.8168 66.078C46.6463 66.5383 46.7773 67.0569 47.1455 67.3789L58.8851 77.6456H52.021ZM62.4501 77.6456L51.0401 67.6672H72.9577L77.0798 77.6456H62.4501Z" fill="#3E4958"/>
</g>
</g>
<defs>
<clipPath id="clip0_166_1070">
<rect width="80" height="80" fill="white"/>
</clipPath>
</defs>
</svg>
