<svg width="80" height="80" viewBox="0 0 80 80" fill="none" xmlns="http://www.w3.org/2000/svg">
<g clip-path="url(#clip0_166_1077)">
<path d="M79.6085 57.66C79.0464 56.7345 77.9969 56.2652 76.4894 56.2652H69.2977C68.6455 56.2652 68.1169 56.7894 68.1169 57.4361C68.1169 58.0829 68.6455 58.6071 69.2977 58.6071H76.4894C77.2294 58.6071 77.5265 58.771 77.5852 58.868C77.6619 58.9945 77.8357 59.5514 76.8452 61.4068C75.1785 64.5252 73.6286 64.6541 71.834 64.8033L70.6493 64.9013C70.6296 64.9019 70.6099 64.9019 70.59 64.9036L60.6174 65.7284C60.6102 65.729 60.6036 65.7312 60.5964 65.732L56.5204 66.0688C56.7932 64.9509 56.9365 63.8372 56.9365 62.7581C56.9365 61.3163 56.6813 59.9245 56.2116 58.6108L63.8866 58.6073C64.5388 58.6069 65.0671 58.0824 65.0668 57.4358C65.0665 56.7892 64.538 56.2655 63.886 56.2655C63.8858 56.2655 63.8861 56.2655 63.886 56.2655L55.0996 56.2695C53.0991 52.9451 49.6136 50.3644 45.3868 49.1604L43.836 39.3302C43.5221 37.3695 42.07 36 40.3049 36H39.6982C37.9261 36 36.4739 37.371 36.1668 39.3324L34.6122 49.1603C30.3868 50.3638 26.9022 52.9431 24.9013 56.2656L16.1121 56.2696C15.4599 56.27 14.9316 56.7945 14.9319 57.4411C14.9322 58.0877 15.4607 58.6114 16.1127 58.6114L23.7882 58.6079C23.3179 59.9223 23.0624 61.3152 23.0624 62.758C23.0624 63.8371 23.2057 64.9509 23.4785 66.0688L19.4025 65.732C19.3954 65.7312 19.3888 65.729 19.3816 65.7284L9.40895 64.9036C9.3891 64.902 9.36942 64.9019 9.34957 64.9013L8.16473 64.8033C6.3702 64.654 4.82035 64.5252 3.15332 61.4063C2.16379 59.5526 2.33754 58.9956 2.41441 58.869C2.47363 58.7717 2.7716 58.6069 3.51395 58.6069H10.9985C11.6507 58.6069 12.1793 58.0827 12.1793 57.436C12.1793 56.7892 11.6507 56.265 10.9985 56.265H3.51457C2.00504 56.265 0.954258 56.7347 0.391758 57.661C-0.624492 59.3343 0.604102 61.6355 1.06723 62.5032C3.32082 66.7198 5.86613 66.9618 7.92082 67.1331C7.91082 67.2772 7.90457 67.4216 7.90457 67.5665C7.90457 71.0112 10.7325 73.8137 14.2088 73.8137C17.4771 73.8137 20.1713 71.3329 20.4788 68.1708L24.268 68.4839C25.1149 70.5532 26.3813 72.561 27.9847 74.3092C31.3511 77.9789 35.618 80 39.9997 80C40.0425 80 41.0979 79.9715 41.5241 79.9173C45.3627 79.5059 49.0402 77.5517 52.0146 74.3092C53.6182 72.561 54.8844 70.5532 55.7313 68.4839L59.5204 68.1709C59.8282 71.333 62.5243 73.8138 65.7947 73.8138C69.2685 73.8138 72.0947 71.0114 72.0947 67.5666C72.0947 67.4217 72.0885 67.2773 72.0785 67.1332C74.133 66.962 76.6783 66.7199 78.9329 62.5018C79.3955 61.6352 80.6244 59.3331 79.6085 57.66ZM14.2089 71.4719C12.0349 71.4719 10.2663 69.72 10.2663 67.5666C10.2663 67.4868 10.2689 67.4072 10.2736 67.3277L18.1257 67.9765C17.9185 69.9378 16.241 71.4719 14.2089 71.4719ZM38.5008 39.6931C38.5985 39.0696 38.9707 38.3415 39.6986 38.3415H40.3054C41.0297 38.3415 41.4036 39.0716 41.5035 39.6944L42.913 48.6289C41.9663 48.4893 40.993 48.4159 39.9999 48.4159C39.0069 48.4159 38.0339 48.4893 37.0875 48.6288L38.5008 39.6931ZM41.2614 77.5896C40.883 77.63 40.503 77.6523 40.1224 77.6563C36.7905 77.6181 34.0952 75.5635 34.0952 73.0422C34.0952 70.4992 36.8413 68.4305 40.2168 68.4305C43.5946 68.4305 46.3427 70.4992 46.3427 73.0422C46.3427 75.3189 44.1432 77.2147 41.2614 77.5896ZM53.8143 66.911C53.7949 66.9552 53.778 67.0007 53.7643 67.0475C53.0336 69.0506 51.8344 71.0252 50.2674 72.7335C49.7183 73.3321 49.1432 73.8798 48.5464 74.3749C48.6491 73.9432 48.7044 73.4979 48.7044 73.042C48.7044 69.2079 44.8969 66.0885 40.2168 66.0885C35.5391 66.0885 31.7336 69.2079 31.7336 73.042C31.7336 73.6567 31.8324 74.2528 32.0158 74.8209C31.2166 74.2153 30.4519 73.5182 29.7322 72.7335C28.1638 71.0234 26.9638 69.0467 26.2333 67.0416C26.2193 66.9951 26.2032 66.9493 26.1835 66.9053C25.6893 65.5071 25.4246 64.0977 25.4246 62.758C25.4246 61.0676 25.8522 59.4581 26.6216 57.9978C26.6236 57.9941 26.6255 57.9904 26.6275 57.9867C28.873 53.7371 34.0214 50.7578 39.9999 50.7578C48.0366 50.7578 54.5752 56.141 54.5752 62.7578C54.575 64.0995 54.3097 65.511 53.8143 66.911ZM65.7949 71.4719C63.7605 71.4719 62.0811 69.9378 61.8736 67.9765L69.7258 67.3277C69.7307 67.4072 69.7332 67.4868 69.7332 67.5666C69.7332 69.72 67.9665 71.4719 65.7949 71.4719Z" fill="#3E4958"/>
<path d="M48.5346 56.9088C48.4989 56.8472 48.4649 56.7841 48.4305 56.7204C48.0841 56.0785 47.5043 55.0039 45.5681 55.0039L39.9978 55L34.429 55.0039C32.4927 55.0041 31.9129 56.0785 31.5665 56.7204C31.5322 56.7841 31.4981 56.8474 31.4631 56.9077L30.3042 58.9042C29.9176 59.5674 29.8984 60.3317 30.2529 60.9485C30.4785 61.3412 31.0517 62 32.3559 62H47.6447C48.9477 62 49.521 61.3407 49.7467 60.9477C50.1014 60.3306 50.0825 59.5667 49.6966 58.9045L48.5346 56.9088ZM32.1353 59.8989C32.1353 59.8989 33.3551 57.7919 33.3994 57.7097C33.6643 57.2188 33.7356 57.0869 34.4296 57.0869L39.9978 57.083L45.5674 57.0869C46.2614 57.0869 46.3328 57.2188 46.5976 57.7097C46.6419 57.7919 46.686 57.8732 46.7334 57.9549L47.8655 59.8986C47.8117 59.909 32.1893 59.9091 32.1353 59.8989Z" fill="#FDC501"/>
<path d="M61.1431 31.9024C63.1318 31.9024 64.7176 31.9278 66.2512 31.9524C67.7806 31.9769 69.2252 32 71.0283 32C75.9754 32 80 28.235 80 23.6073C80 18.9796 75.9754 15.2147 71.0283 15.2147C70.135 15.2147 69.2597 15.3356 68.4171 15.5749C67.1322 14.5545 65.5209 14 63.8056 14C60.1464 14 57.0775 16.6374 56.7037 19.9844C55.0005 21.2482 54 23.1672 54 25.22C54 28.9048 57.2042 31.9024 61.1431 31.9024ZM58.4676 21.4624C58.7828 21.2655 58.9753 20.9368 58.983 20.5821C59.0352 18.1483 61.1986 16.1684 63.8056 16.1684C65.1398 16.1684 66.3802 16.6639 67.2983 17.5637C67.6244 17.8833 68.1252 17.9856 68.5637 17.8222C69.3466 17.5308 70.1758 17.383 71.0283 17.383C74.6981 17.383 77.6837 20.1752 77.6837 23.6072C77.6837 27.0392 74.6981 29.8314 71.0283 29.8314C69.2448 29.8314 67.81 29.8084 66.2905 29.7841C64.7472 29.7595 63.1514 29.7339 61.143 29.7339C58.4815 29.7339 56.3162 27.709 56.3162 25.22C56.3162 23.7083 57.1204 22.3036 58.4676 21.4624Z" fill="#3E4958"/>
<path d="M27.3639 15H34.3451C38.0146 15 41 11.8508 41 7.9799C41 4.11154 38.0146 0.964266 34.3451 0.964266C33.743 0.964266 33.1499 1.04941 32.5736 1.21779C31.632 0.427626 30.4743 0 29.2449 0C26.5487 0 24.2785 2.14879 23.9273 4.90584C22.9126 5.72846 22 6.94402 22 9.26405C22 11.9167 24.3429 15 27.3639 15ZM25.6522 6.56143C25.9631 6.3434 26.1532 5.97848 26.1607 5.58476C26.1948 3.8316 27.5784 2.40533 29.2447 2.40533C30.0976 2.40533 30.8901 2.76262 31.4763 3.4113C31.7975 3.76667 32.291 3.88062 32.7235 3.69871C33.2432 3.48021 33.7886 3.3696 34.3449 3.3696C36.7572 3.3696 38.72 5.4377 38.72 7.9799C38.72 10.5245 36.7574 12.5947 34.3449 12.5947H27.3637C25.6614 12.5947 24.2797 10.5794 24.2797 9.26421C24.2799 7.78447 24.7226 7.21362 25.6522 6.56143Z" fill="#3E4958"/>
<path d="M5.93183 38H13.6462C17.7011 38 21 34.8529 21 30.9844C21 27.1158 17.701 23.9687 13.6462 23.9687C12.9734 23.9687 12.3165 24.0528 11.6848 24.2189C10.6432 23.4372 9.3427 23 8.01039 23C5.03106 23 2.52245 25.1488 2.1344 27.9058C0.971941 28.7544 8.04108e-09 29.9458 8.04108e-09 32.2687C-0.000166677 34.9191 2.59112 38 5.93183 38ZM4.04312 29.5598C4.38515 29.3415 4.59401 28.9775 4.60251 28.5848C4.64018 26.8316 6.16902 25.4053 8.01039 25.4053C8.94949 25.4053 9.82609 25.7634 10.4787 26.4137C10.8345 26.7679 11.3801 26.8808 11.8572 26.6978C12.418 26.4831 13.0199 26.3742 13.6462 26.3742C16.3118 26.3742 18.4807 28.4423 18.4807 30.9845C18.4807 33.5267 16.312 35.5948 13.6462 35.5948H5.93183C4.04812 35.5948 2.51928 33.5821 2.51928 32.2687C2.51928 30.7924 3.01083 30.2189 4.04312 29.5598Z" fill="#3E4958"/>
</g>
<defs>
<clipPath id="clip0_166_1077">
<rect width="80" height="80" fill="white"/>
</clipPath>
</defs>
</svg>
