<svg width="80" height="80" viewBox="0 0 80 80" fill="none" xmlns="http://www.w3.org/2000/svg">
<g clip-path="url(#clip0_166_1109)">
<mask id="mask0_166_1109" style="mask-type:luminance" maskUnits="userSpaceOnUse" x="0" y="0" width="80" height="80">
<path d="M80 0H0V80H80V0Z" fill="white"/>
</mask>
<g mask="url(#mask0_166_1109)">
<path d="M55.5436 57.2186L53.5316 52.4478C53.028 51.2534 51.8647 50.4817 50.5685 50.4817C50.1385 50.4817 49.7185 50.5668 49.3199 50.735L38.5886 55.2612C36.9553 55.9501 36.1867 57.8395 36.8758 59.4728L38.888 64.2436C39.3916 65.4379 40.5549 66.2095 41.851 66.2097C42.2809 66.2097 42.7011 66.1245 43.0996 65.9564L53.8308 61.4301C55.4641 60.7412 56.2325 58.8518 55.5436 57.2186ZM52.9161 59.2617L42.1849 63.7879C42.0775 63.8333 41.9653 63.8562 41.8511 63.8562C41.5035 63.8562 41.1916 63.6492 41.0564 63.329L39.0442 58.5583C38.8596 58.1204 39.0656 57.6143 39.5031 57.4298L50.2344 52.9036C50.3419 52.8583 50.4541 52.8353 50.5683 52.8353C50.916 52.8353 51.2278 53.0422 51.3628 53.3625L53.375 58.1331C53.5597 58.5708 53.3539 59.077 52.9161 59.2617Z" fill="#3E4958"/>
<path d="M53.4199 29.957C52.0031 28.9359 50.139 28.3735 48.1713 28.3735C46.2037 28.3735 44.3398 28.9359 42.9227 29.957C41.3895 31.062 40.5449 32.5682 40.5449 34.1981C40.5449 35.8279 41.3893 37.3343 42.9227 38.4393C44.3396 39.4604 46.2037 40.0228 48.1713 40.0228C50.139 40.0228 52.0029 39.4604 53.4199 38.4393C54.9532 37.3343 55.7977 35.8281 55.7977 34.1981C55.7977 32.5681 54.9532 31.062 53.4199 29.957ZM48.1713 37.6693C45.3132 37.6693 42.8985 36.0798 42.8985 34.1981C42.8984 32.3167 45.3131 30.727 48.1713 30.727C51.0296 30.727 53.444 32.3165 53.444 34.1981C53.444 36.0796 51.0293 37.6693 48.1713 37.6693Z" fill="#3E4958"/>
<path d="M39.2007 46.4536L35.6901 38.5506C35.1527 37.3406 34.0004 36.5059 32.6832 36.3722C31.4435 36.2464 30.1623 36.0089 28.9159 36.0089C27.7438 36.0089 26.6296 36.573 25.9354 37.5178L23.916 40.2667C23.1321 41.3336 22.9791 42.7483 23.5166 43.9581L27.0273 51.8611C27.6204 53.1961 28.9477 54.0589 30.4088 54.0589C30.9276 54.0589 31.4323 53.9514 31.9091 53.7398L37.3218 51.3355C38.2248 50.9342 38.9174 50.2056 39.2724 49.2836C39.6274 48.3617 39.6019 47.3566 39.2007 46.4536ZM37.0759 48.4383C36.9469 48.7736 36.6949 49.0386 36.3665 49.1845L30.9538 51.5889C30.7798 51.6663 30.5966 51.7055 30.4091 51.7055C29.8773 51.7055 29.3941 51.3916 29.1782 50.9056L25.6676 43.0025C25.4723 42.5625 25.5277 42.0483 25.8129 41.66L27.8321 38.9111C28.1098 38.533 28.5854 38.3216 29.0521 38.3692L32.4455 38.7136C32.9248 38.7622 33.3437 39.0658 33.5391 39.5059L37.0498 47.4089C37.1957 47.7372 37.2051 48.1028 37.0759 48.4383Z" fill="#FDC501"/>
<path d="M29.967 43.5358C30.776 43.5358 31.432 42.8799 31.432 42.0708C31.432 41.2617 30.776 40.6058 29.967 40.6058C29.1579 40.6058 28.502 41.2617 28.502 42.0708C28.502 42.8799 29.1579 43.5358 29.967 43.5358Z" fill="#FDC501"/>
<path d="M78.8233 32.2011C79.4731 32.2011 80 31.6742 80 31.0244V25.9342C80 21.5242 76.4122 17.9364 72.0022 17.9364H68.7427C68.2091 16.913 67.1397 16.2114 65.9078 16.2114H62.1031C60.8713 16.2114 59.8019 16.913 59.2683 17.9364H55.262V14.5077C55.262 9.7408 51.3839 5.86267 46.617 5.86267H33.3828C28.6159 5.86267 24.7378 9.7408 24.7378 14.5077V17.9366H20.7316C20.198 16.9131 19.1286 16.2116 17.8967 16.2116H14.0922C12.8603 16.2116 11.7909 16.9131 11.2573 17.9366H7.99781C3.58781 17.9366 0 21.5244 0 25.9342V54.7161C0 55.366 0.526875 55.8928 1.17672 55.8928C1.82656 55.8928 2.35344 55.366 2.35344 54.7161V25.9342C2.35344 22.822 4.88547 20.29 7.99766 20.29H10.8952V70.0589H7.99781C4.88563 70.0589 2.35359 67.527 2.35359 64.4149V59.4231C2.35359 58.7733 1.82672 58.2464 1.17687 58.2464C0.527031 58.2464 0 58.7731 0 59.423V64.4147C0 68.8247 3.58781 72.4124 7.99781 72.4124H11.2573C11.7909 73.4358 12.8603 74.1374 14.0922 74.1374H17.8969C19.1287 74.1374 20.1981 73.4358 20.7317 72.4124H59.2684C59.802 73.4358 60.8714 74.1374 62.1033 74.1374H65.908C67.1398 74.1374 68.2092 73.4358 68.7428 72.4124H72.0023C76.4123 72.4124 80.0002 68.8245 80.0002 64.4145V35.7314C80.0002 35.0816 79.4733 34.5547 78.8234 34.5547C78.1736 34.5547 77.6467 35.0816 77.6467 35.7314V64.4149C77.6467 67.527 75.1147 70.0591 72.0025 70.0591H69.1047V20.29H72.0023C75.1145 20.29 77.6466 22.822 77.6466 25.9342V31.0244C77.6466 31.6742 78.1734 32.2011 78.8233 32.2011ZM27.0914 14.5077C27.0914 11.0385 29.9137 8.21626 33.383 8.21626H46.6172C50.0863 8.21626 52.9087 11.0386 52.9087 14.5077V17.9366H48.9862V14.5077C48.9862 13.2013 47.9236 12.1386 46.6172 12.1386H33.3828C32.0764 12.1386 31.0138 13.2013 31.0138 14.5077V17.9366H27.0913L27.0914 14.5077ZM46.6327 14.5077V17.9366H33.3673V14.5077C33.3673 14.5002 33.3753 14.4922 33.3828 14.4922H46.617C46.6245 14.492 46.6327 14.5003 46.6327 14.5077ZM58.9062 70.0589H21.0936V30.7106C21.0936 30.0608 20.5667 29.5339 19.9169 29.5339C19.267 29.5339 18.7402 30.0608 18.7402 30.7106V70.9406C18.7402 71.4056 18.3617 71.7839 17.8969 71.7839H14.0922C13.6272 71.7839 13.2489 71.4055 13.2489 70.9406V19.4088C13.2487 18.9436 13.6272 18.5653 14.0922 18.5653H17.8969C18.3619 18.5653 18.7402 18.9438 18.7402 19.4086V26.0038C18.7402 26.4956 19.0666 26.9535 19.5305 27.1155C20.2808 27.3775 21.0936 26.7972 21.0936 26.0038V20.2902H58.9062V70.0589ZM66.7511 70.9403C66.7511 71.4053 66.3727 71.7836 65.9078 71.7836H62.1031C61.6381 71.7836 61.2598 71.4053 61.2598 70.9403V19.4086C61.2597 18.9436 61.6381 18.5653 62.1031 18.5653H65.9078C66.3728 18.5653 66.7511 18.9436 66.7511 19.4086V70.9403Z" fill="#3E4958"/>
</g>
</g>
<defs>
<clipPath id="clip0_166_1109">
<rect width="80" height="80" fill="white"/>
</clipPath>
</defs>
</svg>
