<svg width="34" height="34" viewBox="0 0 34 34" fill="none" xmlns="http://www.w3.org/2000/svg">
<path d="M33.3333 16.6667C33.3333 14.478 32.9022 12.3107 32.0647 10.2886C31.2271 8.26652 29.9994 6.4292 28.4518 4.88155C26.9041 3.33391 25.0668 2.10625 23.0447 1.26867C21.0226 0.431096 18.8554 0 16.6667 0V3.33333C19.3036 3.33327 21.8814 4.11513 24.074 5.58005C26.2667 7.04497 27.9757 9.12716 28.985 11.5633C29.6552 13.1813 30.0001 14.9154 30 16.6667H33.3333ZM0 13.3333V5C0 4.55797 0.175595 4.13405 0.488155 3.82149C0.800716 3.50893 1.22464 3.33333 1.66667 3.33333H10C10.442 3.33333 10.8659 3.50893 11.1785 3.82149C11.4911 4.13405 11.6667 4.55797 11.6667 5V11.6667C11.6667 12.1087 11.4911 12.5326 11.1785 12.8452C10.8659 13.1577 10.442 13.3333 10 13.3333H6.66667C6.66667 16.8696 8.07142 20.2609 10.5719 22.7614C13.0724 25.2619 16.4638 26.6667 20 26.6667V23.3333C20 22.8913 20.1756 22.4674 20.4882 22.1548C20.8007 21.8423 21.2246 21.6667 21.6667 21.6667H28.3333C28.7754 21.6667 29.1993 21.8423 29.5118 22.1548C29.8244 22.4674 30 22.8913 30 23.3333V31.6667C30 32.1087 29.8244 32.5326 29.5118 32.8452C29.1993 33.1577 28.7754 33.3333 28.3333 33.3333H20C8.955 33.3333 0 24.3783 0 13.3333Z" fill="#3B4755"/>
<path d="M25.905 12.84C26.4077 14.0532 26.6665 15.3535 26.6667 16.6667H23.6667C23.6667 14.8102 22.9292 13.0297 21.6164 11.7169C20.3037 10.4042 18.5232 9.66669 16.6667 9.66669V6.66669C18.6444 6.66679 20.5777 7.25335 22.2221 8.35219C23.8665 9.45103 25.1482 11.0128 25.905 12.84Z" fill="#3B4755"/>
</svg>
