<svg width="49" height="35" viewBox="0 0 49 35" fill="none" xmlns="http://www.w3.org/2000/svg">
<g clip-path="url(#clip0_166_1124)">
<path d="M13.5628 34.84C9.96275 34.84 6.93875 33.616 4.49075 31.168C2.09075 28.672 0.890747 25.096 0.890747 20.44C0.890747 16.744 1.87475 13.384 3.84275 10.36C5.85875 7.28803 8.71475 4.84003 12.4108 3.01603C16.1548 1.19203 20.0428 0.280029 24.0748 0.280029L25.5148 2.29603C24.3148 2.29603 22.7788 2.53603 20.9068 3.01603C19.0348 3.44803 17.1868 4.12003 15.3628 5.03203C13.5388 5.94403 12.0268 7.09603 10.8268 8.48803C9.00275 10.6 8.09075 12.328 8.09075 13.672C8.47475 13.144 9.33875 12.688 10.6828 12.304C12.0268 11.872 13.4668 11.656 15.0028 11.656C18.8428 11.656 21.7708 13.24 23.7868 16.408C24.5068 13.192 25.9468 10.384 28.1068 7.98403C30.3148 5.58403 33.0028 3.71203 36.1708 2.36803C39.3868 0.97603 42.8428 0.280029 46.5388 0.280029L47.9788 2.29603C46.7788 2.29603 45.2428 2.53603 43.3708 3.01603C41.4988 3.44803 39.6508 4.12003 37.8268 5.03203C36.0028 5.94403 34.4908 7.09603 33.2908 8.48803C31.4668 10.6 30.5548 12.328 30.5548 13.672C30.9388 13.144 31.8028 12.688 33.1468 12.304C34.4908 11.872 35.9308 11.656 37.4668 11.656C39.5788 11.656 41.4268 12.16 43.0108 13.168C44.5948 14.176 45.8428 15.544 46.7548 17.272C47.6668 18.952 48.1228 20.824 48.1228 22.888C48.1228 26.344 47.0188 29.2 44.8108 31.456C42.6508 33.712 39.7228 34.84 36.0268 34.84C33.5308 34.84 31.2748 34.216 29.2588 32.968C27.2428 31.72 25.7548 29.992 24.7948 27.784C23.8828 29.992 22.4668 31.72 20.5468 32.968C18.6268 34.216 16.2988 34.84 13.5628 34.84Z" fill="#FDC501"/>
</g>
<defs>
<clipPath id="clip0_166_1124">
<rect width="49" height="35" fill="white"/>
</clipPath>
</defs>
</svg>
