<svg width="64" height="64" viewBox="0 0 64 64" fill="none" xmlns="http://www.w3.org/2000/svg">
<g clip-path="url(#clip0_166_1054)">
<path d="M49 0H15C6.71573 0 0 6.71573 0 15V49C0 57.2843 6.71573 64 15 64H49C57.2843 64 64 57.2843 64 49V15C64 6.71573 57.2843 0 49 0Z" fill="url(#paint0_radial_166_1054)"/>
<path d="M49 0H15C6.71573 0 0 6.71573 0 15V49C0 57.2843 6.71573 64 15 64H49C57.2843 64 64 57.2843 64 49V15C64 6.71573 57.2843 0 49 0Z" fill="url(#paint1_radial_166_1054)"/>
<path d="M32.0023 7C25.2127 7 24.3605 7.02975 21.694 7.151C19.0325 7.273 17.2157 7.69425 15.6263 8.3125C13.9818 8.951 12.587 9.80525 11.1975 11.1953C9.80675 12.585 8.9525 13.9798 8.312 15.6235C7.692 17.2135 7.27025 19.031 7.1505 21.6913C7.03125 24.358 7 25.2105 7 32.0003C7 38.79 7.03 39.6395 7.151 42.306C7.2735 44.9675 7.69475 46.7843 8.3125 48.3738C8.9515 50.0183 9.80575 51.413 11.1958 52.8025C12.585 54.1933 13.9798 55.0495 15.623 55.688C17.2137 56.3063 19.0307 56.7275 21.6917 56.8495C24.3585 56.9708 25.21 57.0005 31.9993 57.0005C38.7895 57.0005 39.639 56.9708 42.3055 56.8495C44.967 56.7275 46.7857 56.3063 48.3765 55.688C50.0202 55.0495 51.413 54.1933 52.802 52.8025C54.1927 51.413 55.0467 50.0183 55.6875 48.3745C56.302 46.7843 56.724 44.967 56.849 42.3065C56.9688 39.64 57 38.79 57 32.0003C57 25.2105 56.9688 24.3585 56.849 21.6918C56.724 19.0303 56.302 17.2138 55.6875 15.6243C55.0467 13.9798 54.1927 12.585 52.802 11.1953C51.4115 9.80475 50.0208 8.9505 48.375 8.31275C46.7812 7.69425 44.9635 7.27275 42.302 7.151C39.6352 7.02975 38.7862 7 31.9945 7H32.0023ZM29.7595 11.5053C30.4253 11.5043 31.168 11.5053 32.0023 11.5053C38.6775 11.5053 39.4685 11.5293 42.1045 11.649C44.542 11.7605 45.865 12.1678 46.7463 12.51C47.913 12.963 48.7448 13.5048 49.6193 14.38C50.4943 15.255 51.0358 16.0883 51.49 17.255C51.8323 18.135 52.24 19.458 52.351 21.8955C52.4708 24.531 52.4967 25.3225 52.4967 31.9945C52.4967 38.6665 52.4708 39.4583 52.351 42.0935C52.2395 44.531 51.8323 45.854 51.49 46.7343C51.037 47.901 50.4943 48.7318 49.6193 49.6063C48.7443 50.4813 47.9135 51.0228 46.7463 51.476C45.866 51.8198 44.542 52.226 42.1045 52.3375C39.469 52.4573 38.6775 52.4833 32.0023 52.4833C25.3268 52.4833 24.5355 52.4573 21.9002 52.3375C19.4627 52.225 18.1397 51.8178 17.2577 51.4755C16.0912 51.0223 15.2577 50.4808 14.3827 49.6058C13.5077 48.7308 12.9662 47.8995 12.512 46.7323C12.1698 45.852 11.762 44.529 11.651 42.0915C11.5312 39.456 11.5072 38.6645 11.5072 31.9883C11.5072 25.312 11.5312 24.5248 11.651 21.8893C11.7625 19.4518 12.1698 18.1288 12.512 17.2475C12.9653 16.0808 13.5078 15.2475 14.383 14.3725C15.2583 13.4975 16.0912 12.9558 17.258 12.5018C18.1392 12.158 19.4627 11.7517 21.9002 11.6398C24.2065 11.5355 25.1003 11.5043 29.7595 11.499V11.5053ZM45.3473 15.6563C43.691 15.6563 42.3473 16.9988 42.3473 18.6553C42.3473 20.3115 43.691 21.6553 45.3473 21.6553C47.0035 21.6553 48.3473 20.3115 48.3473 18.6553C48.3473 16.999 47.0035 15.6553 45.3473 15.6553V15.6563ZM32.0023 19.1615C24.9123 19.1615 19.1637 24.91 19.1637 32.0003C19.1637 39.0905 24.9123 44.8363 32.0023 44.8363C39.0925 44.8363 44.839 39.0905 44.839 32.0003C44.839 24.9103 39.092 19.1615 32.0018 19.1615H32.0023ZM32.0023 23.6668C36.6045 23.6668 40.3358 27.3975 40.3358 32.0003C40.3358 36.6025 36.6045 40.3338 32.0023 40.3338C27.4 40.3338 23.669 36.6025 23.669 32.0003C23.669 27.3975 27.3997 23.6668 32.0023 23.6668Z" fill="white"/>
</g>
<defs>
<radialGradient id="paint0_radial_166_1054" cx="0" cy="0" r="1" gradientUnits="userSpaceOnUse" gradientTransform="translate(17 68.9292) rotate(-90) scale(63.4288 58.9938)">
<stop stop-color="#FFDD55"/>
<stop offset="0.1" stop-color="#FFDD55"/>
<stop offset="0.5" stop-color="#FF543E"/>
<stop offset="1" stop-color="#C837AB"/>
</radialGradient>
<radialGradient id="paint1_radial_166_1054" cx="0" cy="0" r="1" gradientUnits="userSpaceOnUse" gradientTransform="translate(-10.7202 4.61025) rotate(78.681) scale(28.353 116.872)">
<stop stop-color="#3771C8"/>
<stop offset="0.128" stop-color="#3771C8"/>
<stop offset="1" stop-color="#6600FF" stop-opacity="0"/>
</radialGradient>
<clipPath id="clip0_166_1054">
<rect width="64" height="64" fill="white"/>
</clipPath>
</defs>
</svg>
