<svg width="38" height="39" viewBox="0 0 38 39" fill="none" xmlns="http://www.w3.org/2000/svg">
<path d="M7.79167 16.9792C10.7917 22.875 15.625 27.6875 21.5208 30.7083L26.1042 26.125C26.6667 25.5625 27.5 25.375 28.2292 25.625C30.5625 26.3958 33.0833 26.8125 35.6667 26.8125C36.8125 26.8125 37.75 27.75 37.75 28.8958V36.1667C37.75 37.3125 36.8125 38.25 35.6667 38.25C16.1042 38.25 0.25 22.3958 0.25 2.83333C0.25 1.6875 1.1875 0.75 2.33333 0.75H9.625C10.7708 0.75 11.7083 1.6875 11.7083 2.83333C11.7083 5.4375 12.125 7.9375 12.8958 10.2708C13.125 11 12.9583 11.8125 12.375 12.3958L7.79167 16.9792Z" fill="#FCC501"/>
</svg>
