<svg width="160" height="80" viewBox="0 0 160 80" fill="none" xmlns="http://www.w3.org/2000/svg">
<g clip-path="url(#clip0_166_991)">
<path opacity="0.1" d="M160 0H0V80H160V0Z" fill="white"/>
<path d="M139.994 67.6471C141.435 64.8326 140.994 59.7114 140.69 57.6082C140.512 56.3693 139.878 56.1065 139.343 55.8848C138.883 55.6943 138.497 55.5342 138.535 54.8119C138.619 53.2491 138.784 48.7276 137.955 48.1514C137.125 47.5752 136.379 47.2471 136.379 47.2471C135.22 44.8637 127.343 39.1066 127.343 39.1066V38.2024C114.661 36.8056 86.2926 34.8933 78.2101 36.8056C70.1275 38.7172 51.6022 48.6464 51.6022 48.6464C32.27 49.0134 22.8816 55.2436 22.8816 55.2436C22.8816 55.2436 23.1304 56.2303 20.9546 58.2039C18.7778 60.1784 19.0069 64.0229 19.0069 64.0229L20.1916 69.4538C19.9202 69.9319 19.6601 70.4327 19.5 70.7553C21.5 71.5948 26.4 73.3745 30 73.7775C33.6 74.1805 98.8333 73.9454 131 73.7775C134 72.4343 140 69.3449 140 67.7331C140 67.7061 139.998 67.6774 139.994 67.6471Z" fill="#FDC501" stroke="#3E4958" stroke-width="2"/>
<path d="M49.8398 48.6968C53.3748 50.0147 54.7571 50.7565 55.0007 51C74.334 51 118.501 50.8 120.501 50C123.001 49 117.501 42 116.001 40.5C114.501 39 89.0007 39 80.5007 39C78.2264 39 75.4041 38.8881 72.4677 38.7206C63.5733 42.2305 51.6028 48.6464 51.6028 48.6464C51.0057 48.6577 50.418 48.6746 49.8398 48.6968Z" fill="#3E4958"/>
<path d="M43.0021 80C47.426 80 51.2153 77.3708 52.9616 73.604C53.6106 72.2006 54 70.6516 54 68.9998C54 62.9245 49.075 58 43.0002 58C36.925 58 32 62.9222 32 68.9998C32 70.7878 32.4669 72.4537 33.2258 73.944C35.0444 77.5243 38.7145 80 43.0021 80Z" fill="#3E4958"/>
<path d="M43.0013 76C45.8165 76 48.2279 74.3269 49.3392 71.9298C49.7522 71.0367 50 70.051 50 68.9998C50 65.1338 46.8659 62 43.0001 62C39.1341 62 36 65.1323 36 68.9998C36 70.1377 36.2971 71.1978 36.7801 72.1462C37.9374 74.4246 40.2728 76 43.0013 76Z" fill="white"/>
<path d="M123.002 80C127.375 80 131.12 77.4267 132.891 73.7303C133.582 72.295 134 70.7 134 68.9998C134 62.9245 129.075 58 123 58C116.924 58 112 62.9222 112 68.9998C112 70.5976 112.357 72.1081 112.97 73.4772C114.693 77.3153 118.528 80 123.002 80Z" fill="#3E4958"/>
<path d="M123.001 76C125.817 76 128.228 74.3269 129.339 71.9298C129.752 71.0367 130 70.051 130 68.9998C130 65.1338 126.866 62 123 62C119.134 62 116 65.1323 116 68.9998C116 70.1377 116.297 71.1978 116.78 72.1462C117.937 74.4246 120.273 76 123.001 76Z" fill="white"/>
</g>
<defs>
<clipPath id="clip0_166_991">
<rect width="160" height="80" fill="white"/>
</clipPath>
</defs>
</svg>
