<svg width="20" height="21" viewBox="0 0 20 21" fill="none" xmlns="http://www.w3.org/2000/svg">
<path d="M14.608 12.6719C14.608 13.5119 14.847 13.8469 15.472 13.8469C16.865 13.8469 17.752 12.0719 17.752 9.11989C17.752 4.60789 14.464 2.44789 10.359 2.44789C6.136 2.44789 2.295 5.27989 2.295 10.6319C2.295 15.7439 5.65499 18.5279 10.815 18.5279C12.567 18.5279 13.743 18.3359 15.542 17.7359L15.928 19.3429C14.152 19.9199 12.254 20.0869 10.791 20.0869C4.023 20.0869 0.397995 16.3669 0.397995 10.6309C0.397995 4.84689 4.599 0.910889 10.383 0.910889C16.407 0.910889 19.598 4.51089 19.598 8.92689C19.598 12.6709 18.423 15.5269 14.727 15.5269C13.046 15.5269 11.943 14.8549 11.799 13.3659C11.367 15.0219 10.215 15.5269 8.654 15.5269C6.566 15.5269 4.814 13.9179 4.814 10.6789C4.814 7.41489 6.351 5.39889 9.111 5.39889C10.575 5.39889 11.487 5.97489 11.893 6.88689L12.59 5.61489H14.606V12.6719H14.608ZM11.657 9.50389C11.657 8.18489 10.672 7.63189 9.856 7.63189C8.96799 7.63189 7.98499 8.35089 7.98499 10.4639C7.98499 12.1439 8.729 13.0799 9.856 13.0799C10.648 13.0799 11.657 12.5759 11.657 11.1839V9.50389Z" fill="#FCC501"/>
</svg>
