<svg width="30" height="43" viewBox="0 0 30 43" fill="none" xmlns="http://www.w3.org/2000/svg">
<path d="M14.9998 20.4584C13.6185 20.4584 12.2937 19.9097 11.317 18.9329C10.3402 17.9562 9.7915 16.6314 9.7915 15.2501C9.7915 13.8687 10.3402 12.544 11.317 11.5672C12.2937 10.5905 13.6185 10.0417 14.9998 10.0417C16.3812 10.0417 17.7059 10.5905 18.6827 11.5672C19.6594 12.544 20.2082 13.8687 20.2082 15.2501C20.2082 15.9341 20.0735 16.6113 19.8117 17.2432C19.55 17.8751 19.1663 18.4493 18.6827 18.9329C18.199 19.4166 17.6249 19.8002 16.993 20.062C16.3611 20.3237 15.6838 20.4584 14.9998 20.4584ZM14.9998 0.666748C11.1321 0.666748 7.42277 2.2032 4.68786 4.93811C1.95296 7.67301 0.416504 11.3823 0.416504 15.2501C0.416504 26.1876 14.9998 42.3334 14.9998 42.3334C14.9998 42.3334 29.5832 26.1876 29.5832 15.2501C29.5832 11.3823 28.0467 7.67301 25.3118 4.93811C22.5769 2.2032 18.8676 0.666748 14.9998 0.666748Z" fill="#FCC501"/>
</svg>
