<svg width="80" height="80" viewBox="0 0 80 80" fill="none" xmlns="http://www.w3.org/2000/svg">
<g clip-path="url(#clip0_166_1083)">
<mask id="mask0_166_1083" style="mask-type:luminance" maskUnits="userSpaceOnUse" x="0" y="0" width="80" height="81">
<path d="M80 0.5H0V80.5H80V0.5Z" fill="white"/>
</mask>
<g mask="url(#mask0_166_1083)">
<path d="M19.652 24.5472C8.83634 24.5472 0.0371094 33.3465 0.0371094 44.1621C0.0371094 50.8773 3.23149 58.0973 9.53166 65.6217C10.4678 66.7397 11.4006 67.7756 12.2957 68.7208C8.22791 69.8311 5.78556 71.8259 5.78556 74.1542C5.78556 78.2759 12.9296 80.5 19.6514 80.5C26.3733 80.5 33.5172 78.2758 33.5172 74.1542C33.5172 71.8278 31.0756 69.8325 27.0104 68.7217C28.6345 67.0072 30.382 64.99 32.0401 62.74C32.4245 62.2183 32.3133 61.484 31.7917 61.0997C31.2705 60.7158 30.5358 60.8267 30.1514 61.3483C28.1495 64.065 25.9826 66.4525 24.0918 68.3489C23.8751 68.4595 23.6939 68.6351 23.5803 68.8565C21.8865 70.5211 20.4612 71.7559 19.6525 72.4306C18.8526 71.7625 17.449 70.5444 15.777 68.9016C15.657 68.6386 15.4462 68.4323 15.189 68.3173C9.87541 62.9728 2.38321 53.739 2.38321 44.1624C2.38321 34.6405 10.1299 26.8938 19.6518 26.8938C29.1737 26.8938 36.9205 34.6405 36.9205 44.1624C36.9205 48.3207 35.5036 52.8114 32.7092 57.5097C32.3781 58.0667 32.5609 58.7865 33.1178 59.1176C33.6747 59.4487 34.3947 59.2659 34.7258 58.709C37.7389 53.6428 39.2667 48.7487 39.2667 44.1624C39.2669 33.3465 30.4676 24.5472 19.652 24.5472ZM18.934 74.8706C19.1453 75.0342 19.3987 75.1159 19.652 75.1159C19.9053 75.1159 20.1586 75.0342 20.37 74.8706C20.5139 74.7592 22.4742 73.2305 25.0872 70.6756C29.0437 71.4825 31.1712 73.0361 31.1712 74.1544C31.1712 74.9895 30.0265 75.9748 28.1839 76.7256C25.9239 77.6467 22.8937 78.1541 19.6515 78.1541C12.6193 78.1541 8.13181 75.785 8.13181 74.1544C8.13181 73.0345 10.2599 71.4817 14.2187 70.6748C16.8462 73.2448 18.8093 74.7741 18.934 74.8706Z" fill="#3E4958"/>
<path d="M19.6513 35.6335C17.7959 35.6335 16.0315 36.2193 14.549 37.3276C14.0302 37.7156 13.924 38.4507 14.3118 38.9696C14.6999 39.4884 15.4351 39.5945 15.9538 39.2068C17.0274 38.4042 18.306 37.9798 19.6512 37.9798C23.0601 37.9798 25.8334 40.7531 25.8334 44.1622C25.8334 47.5711 23.0601 50.3444 19.6512 50.3444C16.2423 50.3444 13.469 47.5709 13.469 44.1622C13.469 43.5804 13.5495 43.0053 13.7081 42.4531C13.8868 41.8304 13.527 41.1807 12.9043 41.0018C12.2818 40.8237 11.632 41.1831 11.453 41.8057C11.2341 42.5687 11.123 43.3614 11.123 44.1622C11.123 48.8647 14.9488 52.6906 19.6515 52.6906C24.354 52.6906 28.18 48.8648 28.18 44.1622C28.1798 39.4595 24.3539 35.6335 19.6513 35.6335Z" fill="#FDC501"/>
<path d="M70.7764 34.5815C71.3733 33.941 71.9881 33.251 72.6047 32.5144C77.4887 26.6811 79.9651 21.0735 79.9651 15.8467C79.9651 7.3847 73.0806 0.5 64.6184 0.5C58.4367 0.5 52.8862 4.17907 50.4782 9.87283C50.2257 10.4696 50.5049 11.158 51.1015 11.4102C51.6981 11.6624 52.3866 11.3835 52.6388 10.7869C54.6792 5.96314 59.3813 2.8461 64.6184 2.8461C71.787 2.8461 77.619 8.6783 77.619 15.8469C77.619 25.5411 67.4412 34.8288 64.6179 37.218C63.9957 36.6923 63.0164 35.8316 61.8681 34.706C61.7535 34.479 61.5685 34.299 61.3464 34.1876C57.2959 30.1093 51.6177 23.0988 51.6177 15.8469C51.6177 15.1989 51.0927 14.6738 50.4446 14.6738C49.7968 14.6738 49.2715 15.1989 49.2715 15.8469C49.2715 21.0735 51.7479 26.6811 56.6321 32.5146C57.2485 33.2507 57.8629 33.9404 58.4595 34.5807C55.4354 35.4893 53.6896 37.0359 53.6896 38.8982C53.6896 40.4688 54.9637 41.8531 57.2774 42.7957C59.2571 43.6024 61.8642 44.0468 64.6182 44.0468C67.3721 44.0468 69.9792 43.6024 71.959 42.7957C74.2723 41.8529 75.5464 40.4687 75.5464 38.898C75.5462 37.0391 73.7992 35.4912 70.7764 34.5815ZM64.6181 41.7004C59.0651 41.7004 56.0359 39.8491 56.0359 38.8979C56.0359 38.2782 57.4138 37.1441 60.3563 36.5185C62.3362 38.4449 63.8057 39.5896 63.9006 39.6632C64.112 39.8268 64.3653 39.9085 64.6185 39.9085C64.8718 39.9085 65.125 39.8268 65.3365 39.6632C65.4314 39.5899 66.9006 38.4451 68.8804 36.5188C70.1914 36.7984 71.327 37.2079 72.1217 37.6916C72.7972 38.1032 73.2004 38.5541 73.2004 38.8979C73.2001 39.8491 70.1709 41.7004 64.6181 41.7004Z" fill="#3E4958"/>
<path d="M64.6173 9.02063C60.8534 9.02063 57.791 12.0828 57.791 15.847C57.791 19.611 60.8532 22.6732 64.6173 22.6732C68.3813 22.6732 71.4435 19.6111 71.4435 15.847C71.4435 12.083 68.3813 9.02063 64.6173 9.02063ZM64.6174 20.3269C62.1468 20.3269 60.1373 18.3172 60.1373 15.8469C60.1373 13.3766 62.147 11.3667 64.6174 11.3667C67.0878 11.3667 69.0976 13.3764 69.0976 15.8469C69.0974 18.3172 67.0878 20.3269 64.6174 20.3269Z" fill="#FDC501"/>
<path d="M49.4011 37.7249H48.8654C48.4754 37.7249 48.0836 37.7506 47.7001 37.8017C47.0581 37.8872 46.6067 38.4769 46.692 39.1194C46.7706 39.7092 47.2743 40.138 47.8534 40.138C47.905 40.138 47.9572 40.1347 48.0097 40.1277C48.2907 40.0903 48.5787 40.0714 48.8656 40.0714H49.4011C50.049 40.0714 50.5742 39.5463 50.5742 38.8981C50.5742 38.25 50.049 37.7249 49.4011 37.7249Z" fill="#3E4958"/>
<path d="M45.5234 72.9215H45.518L43.9686 72.9285C43.3208 72.9315 42.798 73.4592 42.8008 74.107C42.8036 74.7531 43.3284 75.2748 43.9738 75.2748H43.9792L45.5286 75.2678C46.1764 75.2648 46.6992 74.7371 46.6964 74.0893C46.6936 73.4431 46.1689 72.9215 45.5234 72.9215Z" fill="#3E4958"/>
<path d="M50.7909 52.9203H49.2415C48.5935 52.9203 48.0684 53.4456 48.0684 54.0934C48.0684 54.7414 48.5934 55.2665 49.2415 55.2665H50.7909C51.4388 55.2665 51.964 54.7415 51.964 54.0934C51.964 53.4456 51.439 52.9203 50.7909 52.9203Z" fill="#3E4958"/>
<path d="M44.576 40.1151C44.1368 39.6391 43.3949 39.6091 42.9183 40.0482C42.481 40.4515 42.0832 40.901 41.736 41.3845C41.358 41.9109 41.4783 42.6439 42.0046 43.0218C42.2116 43.1706 42.451 43.2422 42.688 43.2422C43.0529 43.2422 43.4126 43.0723 43.6418 42.7532C43.8965 42.3987 44.1883 42.0687 44.5091 41.7728C44.9854 41.3335 45.0152 40.5913 44.576 40.1151Z" fill="#3E4958"/>
<path d="M51.7186 72.8929H51.7131L50.1639 72.9C49.5161 72.9028 48.9933 73.4306 48.9961 74.0784C48.9989 74.7245 49.5238 75.2462 50.1691 75.2462H50.1745L51.7238 75.2392C52.3716 75.2364 52.8944 74.7086 52.8916 74.0608C52.8886 73.4147 52.3639 72.8929 51.7186 72.8929Z" fill="#3E4958"/>
<path d="M39.3223 72.9493H39.3168L37.7674 72.9564C37.1196 72.9593 36.5968 73.487 36.5996 74.1348C36.6026 74.7809 37.127 75.3026 37.7726 75.3026H37.7781L39.3275 75.2956C39.9753 75.2926 40.4981 74.765 40.4953 74.1172C40.4925 73.4709 39.9678 72.9493 39.3223 72.9493Z" fill="#3E4958"/>
<path d="M45.4424 51.9341C45.0738 51.7016 44.727 51.43 44.4122 51.1274C43.9452 50.6781 43.2024 50.693 42.7534 51.1595C42.3042 51.6264 42.3188 52.3691 42.7856 52.8181C43.215 53.2311 43.6877 53.6012 44.1905 53.9184C44.3849 54.0411 44.6013 54.0995 44.8153 54.0995C45.2047 54.0995 45.5855 53.9059 45.8088 53.552C46.1545 53.0042 45.9903 52.2797 45.4424 51.9341Z" fill="#3E4958"/>
<path d="M42.5588 47.7325C42.48 47.3281 42.44 46.9121 42.44 46.4959L42.4403 46.4307C42.448 45.7829 41.9289 45.2517 41.281 45.2442C41.2764 45.244 41.2717 45.244 41.267 45.244C40.6255 45.244 40.1017 45.7603 40.0942 46.4036L40.0938 46.4961C40.0938 47.0626 40.1483 47.6297 40.2558 48.1814C40.3648 48.7415 40.8558 49.1301 41.4059 49.1301C41.4802 49.1301 41.5558 49.1231 41.6314 49.1083C42.2675 48.9843 42.6825 48.3684 42.5588 47.7325Z" fill="#3E4958"/>
<path d="M75.824 55.3087C75.3719 54.952 74.8888 54.6279 74.3877 54.3459C73.8238 54.0278 73.108 54.2276 72.7899 54.7921C72.4719 55.3565 72.6716 56.0721 73.2362 56.3899C73.6315 56.6129 74.013 56.8685 74.3698 57.1502C74.5854 57.3204 74.8413 57.4027 75.096 57.4027C75.4426 57.4027 75.786 57.2496 76.0176 56.9565C76.4191 56.4479 76.3326 55.7101 75.824 55.3087Z" fill="#3E4958"/>
<path d="M71.4715 73.7336C71.3824 73.0919 70.7893 72.6427 70.1488 72.732C69.7646 72.7852 69.3712 72.8131 68.9788 72.8147L68.7593 72.8158C68.1113 72.8191 67.5887 73.3469 67.5918 73.9945C67.5951 74.6405 68.1196 75.162 68.7648 75.162C68.7668 75.162 68.7705 75.162 68.7705 75.162L68.9896 75.1609C69.4851 75.1588 69.9832 75.1236 70.4699 75.0563C71.1119 74.9675 71.5602 74.3752 71.4715 73.7336Z" fill="#3E4958"/>
<path d="M76.6461 70.4347C76.1991 69.9653 75.4564 69.9474 74.9877 70.3944C74.6584 70.708 74.3022 70.9983 73.9286 71.2574C73.3962 71.6264 73.2639 72.3574 73.6328 72.89C73.8608 73.2186 74.2262 73.3949 74.598 73.3949C74.8286 73.3949 75.0614 73.3271 75.2653 73.1858C75.7381 72.8578 76.1892 72.4903 76.6059 72.0933C77.0752 71.6463 77.093 70.9036 76.6461 70.4347Z" fill="#3E4958"/>
<path d="M78.9293 64.7373C78.2935 64.6174 77.6794 65.0362 77.5594 65.6729C77.4752 66.1193 77.3555 66.5623 77.2032 66.9898C76.9857 67.5999 77.304 68.271 77.9143 68.4887C78.0444 68.5351 78.1776 68.5571 78.3083 68.5571C78.7902 68.5571 79.2421 68.2577 79.4133 67.7777C79.6066 67.2355 79.7587 66.6735 79.8654 66.1071C79.9849 65.4704 79.5658 64.8569 78.9293 64.7373Z" fill="#3E4958"/>
<path d="M79.6269 60.9664C79.4679 60.4125 79.2638 59.8669 79.0197 59.3439C78.7457 58.7567 78.0482 58.503 77.4605 58.7767C76.8735 59.0508 76.6196 59.7487 76.8935 60.3359C77.0857 60.7477 77.2466 61.1777 77.3718 61.6136C77.5194 62.1281 77.9888 62.4635 78.4988 62.4635C78.6061 62.4635 78.7149 62.4486 78.823 62.4177C79.4457 62.2388 79.8055 61.5891 79.6269 60.9664Z" fill="#3E4958"/>
<path d="M63.1873 52.9203H61.638C60.99 52.9203 60.4648 53.4456 60.4648 54.0934C60.4648 54.7414 60.9898 55.2665 61.638 55.2665H63.1873C63.8353 55.2665 64.3605 54.7415 64.3605 54.0934C64.3605 53.4456 63.8353 52.9203 63.1873 52.9203Z" fill="#3E4958"/>
<path d="M57.918 72.8647H57.9125L56.3631 72.8718C55.7153 72.8746 55.1925 73.4024 55.1953 74.0502C55.1983 74.6963 55.723 75.218 56.3683 75.218H56.3738L57.9231 75.211C58.5709 75.208 59.0938 74.6804 59.0909 74.0326C59.0881 73.3865 58.5633 72.8647 57.918 72.8647Z" fill="#3E4958"/>
<path d="M69.4363 52.9315C69.2704 52.924 69.1023 52.9204 68.937 52.9204H67.8352C67.1873 52.9204 66.6621 53.4457 66.6621 54.0935C66.6621 54.7415 67.1871 55.2667 67.8352 55.2667H68.937C69.0696 55.2667 69.2015 55.2695 69.3326 55.2753C69.3502 55.2762 69.3679 55.2765 69.3854 55.2765C70.0093 55.2765 70.5287 54.785 70.5563 54.1554C70.5849 53.5079 70.0835 52.9601 69.4363 52.9315Z" fill="#3E4958"/>
<path d="M64.1133 72.8369H64.1078L62.5584 72.8439C61.9106 72.8468 61.3878 73.3746 61.3906 74.0224C61.3936 74.6685 61.9183 75.1902 62.5636 75.1902H62.5691L64.1184 75.1832C64.7663 75.1802 65.2891 74.6525 65.2863 74.0047C65.2834 73.3585 64.7588 72.8369 64.1133 72.8369Z" fill="#3E4958"/>
</g>
</g>
<defs>
<clipPath id="clip0_166_1083">
<rect width="80" height="80" fill="white"/>
</clipPath>
</defs>
</svg>
