<svg width="160" height="80" viewBox="0 0 160 80" fill="none" xmlns="http://www.w3.org/2000/svg">
<g clip-path="url(#clip0_166_1022)">
<path opacity="0.1" d="M160 0H0V80H160V0Z" fill="white"/>
<path d="M146.054 57.9941C146.054 57.9941 145.719 52.5351 145.04 50.5329C144.365 48.5345 144.366 48.5327 145.375 47.2694L145.378 47.266C146.335 46.0701 142.823 46.778 141.864 46.9714L141.797 46.9847C141.77 46.9902 141.746 46.9951 141.724 46.9993C141.048 47.1349 140.996 46.9993 140.996 46.9993C137.24 47.159 131.479 45.5641 124.593 43.0794C117.099 40.3754 108.653 37.3281 101.218 36.5984C86.9516 35.2001 73.0193 36.5336 67.88 37.7319C64.6487 38.4863 56.7656 42.3248 50.8878 45.1869C47.4173 46.8768 46.953 47.1946 46.2509 47.3679C44.3593 47.8346 42.8619 47.9328 42.8619 47.9328C33.1265 48.3307 16.4236 56.5335 16.4236 56.5335C15.7473 57.0002 15.2062 59.7335 15.2062 59.7335L15.5445 60.667C12.7718 63.2028 13.5831 68.5366 13.5831 68.5366L14.9401 68.0678C15.0265 68.224 15.1014 68.4148 15.1661 68.6227L12.6643 69.6093C12.163 70.5978 11.4612 72.7725 12.6643 73.5634C13.8674 74.3542 93.7074 73.8929 133.477 73.5634C136.317 73.1153 141.135 72.1798 144.054 71.1297C145.415 70.92 146.265 70.8035 146.265 70.8035L147.549 69.1365C147.549 69.1365 148.563 62.0029 147.549 60.869C146.534 59.7379 146.054 57.9941 146.054 57.9941Z" fill="#FDC501" stroke="#3E4958" stroke-width="2"/>
<path d="M42 48.7102C44.1877 49.4958 45.1002 49.9444 45.7695 50.2735C46.1377 50.4545 48.4096 50.5993 48.8023 50.7441C50.0592 51.2075 89.9425 50.9372 110.716 50.7441L117 48.427C115.778 46.8823 112.496 43.3294 109.145 41.4757C104.955 39.1586 93.9575 38 85.0547 38C79.7375 38 71.0354 38.1361 62.3125 39.0833C58.8118 40.8102 52.1939 43.9204 48.8023 45.7471C47.6128 46.3878 46.7605 46.8582 46.1263 47.2083C44.8224 47.928 44.4404 48.1389 43.9457 48.2739C43.2237 48.471 42.5564 48.6114 42 48.7102Z" fill="#3E4958"/>
<path d="M41.0021 80C45.426 80 49.2153 77.3708 50.9616 73.604C51.6106 72.2006 52 70.6516 52 68.9998C52 62.9245 47.075 58 41.0002 58C34.925 58 30 62.9222 30 68.9998C30 70.7878 30.4669 72.4537 31.2258 73.944C33.0444 77.5243 36.7145 80 41.0021 80Z" fill="#3E4958"/>
<path d="M41.0013 76C43.8165 76 46.2279 74.3269 47.3392 71.9298C47.7522 71.0367 48 70.051 48 68.9998C48 65.1338 44.8659 62 41.0001 62C37.1341 62 34 65.1323 34 68.9998C34 70.1377 34.2971 71.1978 34.7801 72.1462C35.9374 74.4246 38.2728 76 41.0013 76Z" fill="white"/>
<path d="M121.002 80C125.375 80 129.12 77.4267 130.891 73.7303C131.582 72.295 132 70.7 132 68.9998C132 62.9245 127.075 58 121 58C114.924 58 110 62.9222 110 68.9998C110 70.5976 110.357 72.1081 110.97 73.4772C112.693 77.3153 116.528 80 121.002 80Z" fill="#3E4958"/>
<path d="M121.001 76C123.817 76 126.228 74.3269 127.339 71.9298C127.752 71.0367 128 70.051 128 68.9998C128 65.1338 124.866 62 121 62C117.134 62 114 65.1323 114 68.9998C114 70.1377 114.297 71.1978 114.78 72.1462C115.937 74.4246 118.273 76 121.001 76Z" fill="white"/>
</g>
<defs>
<clipPath id="clip0_166_1022">
<rect width="160" height="80" fill="white"/>
</clipPath>
</defs>
</svg>
