<svg width="161" height="80" viewBox="0 0 161 80" fill="none" xmlns="http://www.w3.org/2000/svg">
<g clip-path="url(#clip0_166_1032)">
<path opacity="0.1" d="M161 0H1V80H161V0Z" fill="white"/>
<path d="M31.2341 36.505C41.8565 35.2222 50.9233 34.1273 51.131 34.1273C51.4749 34.1273 63.1512 22.5727 71.4232 14.3279C73.4451 14.1198 75.9438 14 79.059 14H151.118C153.191 22.9819 157.022 39.8236 157.409 42.4727C157.81 45.2218 157.576 46.5636 157.409 46.8909L159.915 47.3818C160.082 49.6727 160.116 55.04 158.913 58.1818C157.709 61.3236 155.403 63.4182 154.401 64.0727L150.892 66.0364L11.5275 68C9.35516 68 5.01048 67.8036 5.01048 67.0182V63.7754C1.91184 61.4006 -0.590338 57.3379 2.22806 50.6713C2.22806 50.6713 3.03365 50.513 4.16365 48.4843C5.24732 46.5374 10.1819 39.5639 10.5875 38.9916C16.7946 38.2488 24.3418 37.3374 31.2341 36.505Z" fill="#FDC501" stroke="#3E4958" stroke-width="2"/>
<path d="M49.0508 34.3629C50.3273 34.2124 51.0736 34.1273 51.1315 34.1273C51.4395 34.1273 60.8384 24.8582 68.7399 17H136.626C137.723 17 138.667 17.6999 138.87 18.6708C139.859 23.389 134.942 29.0178 133.055 31.1778C132.683 31.6034 132.429 31.8944 132.361 32.0172C131.926 32.8003 83.8921 35.4905 51.323 35.9997C50.1289 36.0183 49.2629 35.2628 49.0508 34.3629Z" fill="#3E4958"/>
<path d="M130.003 80C135.966 80 141.073 76.4909 143.488 71.4504C144.43 69.4932 145 67.3182 145 64.9997C145 56.7153 138.284 50 130 50C121.715 50 115 56.7121 115 64.9997C115 67.1785 115.487 69.2383 116.323 71.1052C118.672 76.3391 123.902 80 130.003 80Z" fill="#3E4958"/>
<path d="M130.002 75C134.024 75 137.468 72.6098 139.056 69.1854C139.646 67.9096 140 66.5015 140 64.9998C140 59.4768 135.523 55 130 55C124.477 55 120 59.4747 120 64.9998C120 66.6253 120.424 68.1398 121.114 69.4946C122.768 72.7494 126.104 75 130.002 75Z" fill="white"/>
<path d="M33.0032 80C38.9664 80 44.0727 76.4909 46.4879 71.4504C47.43 69.4932 48 67.3182 48 64.9997C48 56.7153 41.2842 50 33 50C24.7151 50 18 56.7121 18 64.9997C18 67.1785 18.4874 69.2383 19.3232 71.1052C21.6717 76.3391 26.9016 80 33.0032 80Z" fill="#3E4958"/>
<path d="M33.0019 75C37.0236 75 40.4685 72.6098 42.056 69.1854C42.646 67.9096 43 66.5015 43 64.9998C43 59.4768 38.5227 55 33.0002 55C27.4773 55 23 59.4747 23 64.9998C23 66.6253 23.4244 68.1398 24.1144 69.4946C25.7677 72.7494 29.1041 75 33.0019 75Z" fill="white"/>
</g>
<defs>
<clipPath id="clip0_166_1032">
<rect width="161" height="80" fill="white"/>
</clipPath>
</defs>
</svg>
